<svg width="16" height="16" viewBox="0 0 16 16" fill="none" xmlns="http://www.w3.org/2000/svg">
<path d="M12.2725 9.90911C12.0752 10.1003 11.9846 10.3767 12.0295 10.6479L12.7066 14.395C12.7637 14.7126 12.6297 15.034 12.3639 15.2176C12.1034 15.408 11.7569 15.4308 11.4728 15.2785L8.09962 13.5192C7.98233 13.4567 7.85209 13.4232 7.71881 13.4194H7.51242C7.44082 13.4301 7.37076 13.4529 7.30678 13.488L3.93285 15.2557C3.76605 15.3394 3.57717 15.3691 3.3921 15.3394C2.94123 15.2541 2.64039 14.8246 2.71427 14.3714L3.3921 10.6243C3.43704 10.3509 3.34641 10.0729 3.14915 9.87865L0.398974 7.21299C0.168967 6.98983 0.0889983 6.65472 0.194101 6.35236C0.296156 6.05076 0.556627 5.83065 0.871172 5.78115L4.65638 5.23202C4.94426 5.20232 5.19712 5.02715 5.32659 4.7682L6.99452 1.34854C7.03412 1.27238 7.08515 1.20231 7.14684 1.1429L7.21539 1.08959C7.25118 1.04998 7.29231 1.01723 7.33801 0.990577L7.42102 0.960113L7.5505 0.906799H7.87113C8.1575 0.936502 8.40959 1.10787 8.54135 1.36377L10.2314 4.7682C10.3532 5.01725 10.5901 5.19013 10.8635 5.23202L14.6487 5.78115C14.9686 5.82685 15.2359 6.04771 15.3418 6.35236C15.4415 6.65777 15.3555 6.99288 15.1209 7.21299L12.2725 9.90911Z" fill="#F6B76F"/>
</svg>
